<svg width="36" height="36" viewBox="0 0 36 36" fill="none" xmlns="http://www.w3.org/2000/svg">
<g clip-path="url(#clip0_1_1712)">
<path d="M11.3882 24.1315V14.3577H9.12878V11.8531H14.506V24.1315H11.3882ZM26.2233 15.0233C26.2233 16.0917 25.6453 17.0375 24.682 17.563C26.0305 18.1234 26.8714 19.297 26.8714 20.6632C26.8714 22.8701 24.9096 24.2714 21.8445 24.2714C18.7793 24.2714 16.8176 22.8876 16.8176 20.7158C16.8176 19.3145 17.7284 18.1234 19.1471 17.563C18.1137 16.9849 17.4481 16.0042 17.4481 14.9358C17.4481 12.9739 19.1647 11.7305 21.827 11.7305C24.5243 11.7305 26.2233 13.0091 26.2233 15.0233ZM19.7601 20.4006C19.7601 21.434 20.4958 22.012 21.8445 22.012C23.1931 22.012 23.9463 21.4517 23.9463 20.4006C23.9463 19.3848 23.1931 18.8066 21.8445 18.8066C20.4957 18.8066 19.7601 19.3847 19.7601 20.4006ZM20.0755 15.1984C20.0755 16.0744 20.706 16.5646 21.8445 16.5646C22.983 16.5646 23.6135 16.0743 23.6135 15.1984C23.6135 14.2879 22.983 13.7798 21.8445 13.7798C20.7059 13.7798 20.0755 14.2879 20.0755 15.1984Z" fill="white"/>
<path d="M32.0594 13.2382C32.5777 14.768 32.8407 16.3681 32.8407 18.0001C32.8407 26.183 26.1833 32.8404 18.0002 32.8404C9.81712 32.8404 3.1596 26.183 3.1596 18.0001C3.1596 9.81688 9.81701 3.15969 18.0001 3.15969C19.6322 3.15969 21.2323 3.42241 22.7619 3.94096V0.638418C21.2169 0.214886 19.6212 0 18.0002 0C8.07505 0 0.000244141 8.07481 0.000244141 18.0001C0.000244141 27.9253 8.07505 36.0001 18.0002 36.0001C27.9253 36.0001 36 27.9253 36 18.0001C36 16.3792 35.7852 14.7833 35.3617 13.2382H32.0594Z" fill="white"/>
<path d="M31.1611 4.82837V1.37695H28.6792V4.82837H25.2485V7.31001H28.6792V10.7613H31.1611V7.31001H34.6123V4.82837H31.1611Z" fill="white"/>
</g>
<defs>
<clipPath id="clip0_1_1712">
<rect width="36" height="36" fill="white"/>
</clipPath>
</defs>
</svg>
