<svg width="68" height="23" viewBox="0 0 68 23" fill="none" xmlns="http://www.w3.org/2000/svg">
<g clip-path="url(#clip0_1_1697)">
<path d="M54.045 3.77585C55.0782 3.77585 55.9158 2.933 55.9158 1.89329C55.9158 0.853589 55.0782 0.0107422 54.045 0.0107422C53.0118 0.0107422 52.1743 0.853589 52.1743 1.89329C52.1743 2.933 53.0118 3.77585 54.045 3.77585Z" fill="white"/>
<path d="M59.6594 5.62988H63.1014V7.70581H59.6594V5.62988Z" fill="white"/>
<path d="M64.5579 5.62988H68V7.70581H64.5579V5.62988Z" fill="white"/>
<path fill-rule="evenodd" clip-rule="evenodd" d="M65.0794 16.3689V14.2295H62.6008V16.3689H62.5991C62.5991 18.3833 60.976 20.0162 58.9743 20.0162C56.9725 20.0162 55.3499 18.3833 55.3499 16.3689H52.8708C52.8708 19.7609 55.6036 22.5107 58.9743 22.5107C62.3454 22.5107 65.0777 19.7609 65.0777 16.3689H65.0794Z" fill="white"/>
<path fill-rule="evenodd" clip-rule="evenodd" d="M62.146 5.62988C62.146 5.63433 62.146 5.63878 62.146 5.64323V10.6516C62.146 11.5225 62.8477 12.2286 63.713 12.2286H63.9434C64.8087 12.2286 65.5103 11.5225 65.5103 10.6516V10.2073C65.5108 10.1856 65.5108 10.1638 65.5108 10.1418V5.62988H68V10.5111C68 11.7956 67.6702 12.7644 67.0106 13.4174C66.351 14.0703 65.4576 14.3968 64.3301 14.3968C64.3182 14.3968 64.3063 14.3968 64.2944 14.3967C64.2821 14.3966 64.2693 14.3964 64.257 14.3962V14.3968H63.4023V14.3962C63.3781 14.3966 63.3539 14.3968 63.3292 14.3968C62.2017 14.3968 61.3084 14.0703 60.6488 13.4174C59.9892 12.7644 59.6594 11.7956 59.6594 10.5111V5.62988H62.146Z" fill="white"/>
<path d="M8.20156 8.54054C8.83979 8.74394 9.33976 9.08647 9.70143 9.5682C10.0631 10.0392 10.2439 10.6226 10.2439 11.3184C10.2439 12.3032 9.86102 13.0632 9.09509 13.5984C8.33982 14.1229 7.23354 14.3852 5.77618 14.3852H0V3.14551H5.45704C6.81866 3.14551 7.86114 3.40777 8.58449 3.93228C9.31851 4.45682 9.6855 5.16864 9.6855 6.06782C9.6855 6.61375 9.55251 7.10082 9.28659 7.52897C9.03129 7.95715 8.66962 8.29433 8.20156 8.54054ZM2.56897 5.1044V7.7538H5.13795C5.77618 7.7538 6.26021 7.64136 6.58997 7.41657C6.91972 7.19179 7.08462 6.85996 7.08462 6.42108C7.08462 5.9822 6.91972 5.65572 6.58997 5.44162C6.26021 5.21684 5.77618 5.1044 5.13795 5.1044H2.56897ZM5.58471 12.4263C6.26552 12.4263 6.77612 12.3139 7.11654 12.0891C7.46755 11.8643 7.64307 11.5164 7.64307 11.0454C7.64307 10.1141 6.95695 9.64847 5.58471 9.64847H2.56897V12.4263H5.58471Z" fill="white"/>
<path d="M20.1152 10.0989C20.1152 10.131 20.0993 10.3558 20.0674 10.7733H13.5732C13.6902 11.3086 13.9667 11.7314 14.4029 12.0418C14.839 12.3522 15.3815 12.5075 16.0304 12.5075C16.4772 12.5075 16.8708 12.4432 17.2112 12.3147C17.5622 12.1756 17.8867 11.9615 18.1845 11.6725L19.5089 13.1176C18.7004 14.0489 17.5197 14.5145 15.9666 14.5145C14.9986 14.5145 14.1423 14.3272 13.3976 13.9525C12.653 13.5672 12.0786 13.0373 11.6743 12.3629C11.2701 11.6885 11.068 10.9232 11.068 10.0668C11.068 9.22117 11.2648 8.46116 11.6584 7.78676C12.0626 7.10171 12.6104 6.57182 13.3019 6.19718C14.004 5.81181 14.7859 5.61914 15.6475 5.61914C16.4878 5.61914 17.2484 5.80112 17.9292 6.16507C18.61 6.52901 19.1419 7.05351 19.5249 7.7386C19.9184 8.413 20.1152 9.19975 20.1152 10.0989ZM15.6634 7.51382C15.0996 7.51382 14.6263 7.67437 14.2433 7.99551C13.8604 8.31665 13.6263 8.75552 13.5412 9.31218H17.7696C17.6846 8.76621 17.4506 8.33268 17.0676 8.01159C16.6846 7.67971 16.2166 7.51382 15.6634 7.51382Z" fill="white"/>
<path d="M21.4534 2.47266H23.9426V14.3867H21.4534V2.47266Z" fill="white"/>
<path d="M31.0078 5.61978C31.8056 5.61978 32.529 5.8071 33.1779 6.18174C33.8374 6.54569 34.3533 7.06485 34.7256 7.73924C35.098 8.40291 35.2841 9.179 35.2841 10.0675C35.2841 10.9559 35.098 11.7373 34.7256 12.4117C34.3533 13.0754 33.8374 13.5946 33.1779 13.9692C32.529 14.3332 31.8056 14.5152 31.0078 14.5152C29.8271 14.5152 28.9282 14.1405 28.3112 13.3912V14.3867H25.9337V2.47266H28.4229V6.66343C29.0505 5.96765 29.9122 5.61978 31.0078 5.61978ZM30.577 12.4599C31.2153 12.4599 31.7365 12.2458 32.1407 11.8177C32.5556 11.3787 32.763 10.7954 32.763 10.0675C32.763 9.33955 32.5556 8.76151 32.1407 8.33332C31.7365 7.89444 31.2153 7.67501 30.577 7.67501C29.9387 7.67501 29.4122 7.89444 28.9973 8.33332C28.5931 8.76151 28.391 9.33955 28.391 10.0675C28.391 10.7954 28.5931 11.3787 28.9973 11.8177C29.4122 12.2458 29.9387 12.4599 30.577 12.4599Z" fill="white"/>
<path d="M45.0403 10.0989C45.0403 10.131 45.0241 10.3558 44.9922 10.7733H38.4982C38.6152 11.3086 38.8918 11.7314 39.3279 12.0418C39.764 12.3522 40.3065 12.5075 40.9554 12.5075C41.4022 12.5075 41.7958 12.4432 42.1362 12.3147C42.4873 12.1756 42.8116 11.9615 43.1095 11.6725L44.4338 13.1176C43.6254 14.0489 42.4447 14.5145 40.8916 14.5145C39.9236 14.5145 39.0673 14.3272 38.3226 13.9525C37.578 13.5672 37.0036 13.0373 36.5993 12.3629C36.1951 11.6885 35.993 10.9232 35.993 10.0668C35.993 9.22117 36.1898 8.46116 36.5834 7.78676C36.9876 7.10171 37.5355 6.57182 38.2269 6.19718C38.929 5.81181 39.7109 5.61914 40.5725 5.61914C41.4129 5.61914 42.1734 5.80112 42.8541 6.16507C43.5349 6.52901 44.067 7.05351 44.4499 7.7386C44.8435 8.413 45.0403 9.19975 45.0403 10.0989ZM40.5884 7.51382C40.0246 7.51382 39.5513 7.67437 39.1683 7.99551C38.7854 8.31665 38.5514 8.75552 38.4662 9.31218H42.6947C42.6097 8.76621 42.3756 8.33268 41.9926 8.01159C41.6097 7.67971 41.1416 7.51382 40.5884 7.51382Z" fill="white"/>
<path d="M48.756 6.88762C49.0535 6.47012 49.4526 6.15433 49.9524 5.94024C50.4632 5.72619 51.048 5.61914 51.7076 5.61914V7.93127C51.4309 7.90989 51.2448 7.89919 51.1492 7.89919C50.4364 7.89919 49.878 8.10255 49.4738 8.50931C49.0696 8.90538 48.8673 9.50485 48.8673 10.3077V14.3861H46.3781V5.74757H48.756V6.88762Z" fill="white"/>
<path d="M55.2462 6.88762C55.5441 6.47012 55.9428 6.15433 56.443 5.94024C56.9535 5.72619 57.5387 5.61914 58.1983 5.61914V7.93127C57.9216 7.90989 57.7354 7.89919 57.6398 7.89919C56.9271 7.89919 56.3686 8.10255 55.964 8.50931C55.5599 8.90538 55.358 9.50485 55.358 10.3077V14.3861H52.8688V5.74757H55.2462V6.88762Z" fill="white"/>
</g>
<defs>
<clipPath id="clip0_1_1697">
<rect width="68" height="22.6667" fill="white"/>
</clipPath>
</defs>
</svg>
