<svg width="36" height="36" viewBox="0 0 36 36" fill="none" xmlns="http://www.w3.org/2000/svg">
<g clip-path="url(#clip0_1_1734)">
<path d="M33.9785 17.2602C33.9814 17.2602 33.9836 17.2602 33.9865 17.2602C34.1901 17.2602 34.3842 17.1748 34.5221 17.0252C34.6623 16.8734 34.7316 16.6698 34.7133 16.464C33.9807 8.40517 27.6003 2.02263 19.5408 1.28848C19.3364 1.27243 19.1306 1.33884 18.9788 1.47968C18.8271 1.6198 18.7424 1.81757 18.7446 2.02409C18.8716 12.7341 20.2844 17.1105 33.9785 17.2602ZM33.9785 18.7401C20.2844 18.8897 18.8723 23.2661 18.7453 33.9762C18.7431 34.1827 18.8278 34.3805 18.9796 34.5206C19.1153 34.6454 19.2926 34.7147 19.4751 34.7147C19.497 34.7147 19.5196 34.714 19.5415 34.7118C27.601 33.9776 33.9814 27.5958 34.7133 19.5363C34.7316 19.3305 34.663 19.1269 34.5221 18.9751C34.3813 18.8233 34.185 18.7481 33.9785 18.7401ZM16.4123 1.29213C8.37826 2.04744 2.01834 8.42852 1.28931 16.4654C1.27106 16.6712 1.33966 16.8748 1.4805 17.0266C1.61843 17.1762 1.81328 17.2609 2.01615 17.2609C2.01907 17.2609 2.02199 17.2609 2.02491 17.2609C15.6737 17.104 17.0829 12.7298 17.2113 2.02701C17.2135 1.82048 17.1282 1.62199 16.9764 1.48187C16.8231 1.34176 16.618 1.27316 16.4123 1.29213ZM2.02418 18.7394C1.79722 18.7138 1.61916 18.8219 1.47977 18.9736C1.33966 19.1254 1.27033 19.329 1.28858 19.5348C2.01761 27.5718 8.37826 33.9528 16.4123 34.7081C16.4349 34.7103 16.4582 34.7111 16.4809 34.7111C16.6633 34.7111 16.8399 34.6425 16.9756 34.5177C17.1274 34.3775 17.2128 34.1791 17.2106 33.9725C17.0822 23.2705 15.6737 18.8963 2.02418 18.7394Z" fill="white"/>
</g>
<defs>
<clipPath id="clip0_1_1734">
<rect width="36" height="36" fill="white"/>
</clipPath>
</defs>
</svg>
