<svg width="160" height="57" viewBox="0 0 160 57" fill="none" xmlns="http://www.w3.org/2000/svg">
<path d="M87.7364 31.8893V36.4838H94.9247V38.1247H85.5966V31.8893H87.7364ZM85.5966 28.498V22.9189H94.5951V24.5599H87.7364V28.498H85.5966Z" fill="white"/>
<path d="M97.7229 23.1375C99.04 22.9734 100.576 22.8093 102.277 22.8093C105.349 22.8093 107.545 23.4657 109.026 24.7237C110.507 25.9817 111.385 27.732 111.385 30.1934C111.385 32.7095 110.562 34.7333 108.971 36.1007C107.435 37.5228 104.856 38.2886 101.619 38.2886C100.082 38.2886 98.8202 38.2339 97.7229 38.1245V23.1375ZM99.9176 36.593C100.466 36.7024 101.235 36.7024 102.112 36.7024C106.721 36.7024 109.191 34.3504 109.191 30.2481C109.191 26.6381 106.996 24.3408 102.442 24.3408C101.344 24.3408 100.466 24.4502 99.9176 24.5596V36.593Z" fill="white"/>
<path d="M116.323 22.9189V38.1794H114.184V22.9189H116.323Z" fill="white"/>
<path d="M138.272 33.3661L136.571 38.1794H134.376L140.027 22.9189H142.606L148.258 38.1794H145.954L144.198 33.3661H138.272ZM143.758 31.8346L142.112 27.4588C141.728 26.4743 141.509 25.5444 141.235 24.6693H141.18C140.905 25.5991 140.686 26.529 140.356 27.4042L138.71 31.8346H143.758Z" fill="white"/>
<path d="M150.727 22.9189H152.867V36.5385H160V38.1794H150.727V22.9189Z" fill="white"/>
<path d="M13.7174 37.7966H7.07818V30.7407H0V24.1224H7.07818V17.0664H13.7174V24.1224H20.7956V30.7407H13.7174V37.7966Z" fill="white"/>
<path d="M40.3841 29.7561C40.3841 29.2092 40 28.9357 39.6159 28.9357C39.3416 28.9357 38.4088 28.881 38.4088 28.881C36.3786 28.4434 36.7627 24.9975 36.7627 24.9975C38.6831 13.2377 34.4033 1.20436 23.5939 0.0557166C21.6187 -0.108375 15.3086 -0.327163 11.358 6.07238H11.3031C11.0837 6.01769 10.7545 6.07239 10.4253 6.23647L8.55965 7.71326C8.23044 8.0415 8.23044 8.47905 8.55965 8.86191L9.71192 10.0106C10.096 10.284 10.5899 10.3387 10.8642 10.0106L12.1262 7.82272C12.3457 7.3304 12.3457 6.89285 12.1262 6.67405L12.0713 6.61936C15.144 2.57178 20.2469 0.821475 23.1001 1.25905C38.4636 3.06405 37.2565 22.4268 34.2936 29.3733C31.2209 38.453 17.8875 50.6505 13.8271 52.6742L13.7723 52.7289L13.7174 52.6742C13.4979 52.5648 13.1687 52.5648 12.7846 52.6742L10.4253 53.5494C10.0411 53.7682 10.0411 54.2604 10.2607 54.698L11.1934 56.0107C11.5227 56.3936 11.9616 56.4483 12.3457 56.1748L14.1015 54.4792C14.3759 54.151 14.4856 53.8776 14.4308 53.6041V53.5494C24.0329 47.3139 29.7394 39.8204 33.1413 34.3507C33.1413 34.3507 34.8422 31.9441 38.5734 31.9441C38.5734 31.9441 39.3965 31.9441 39.7805 31.8894C40.1646 31.8347 40.5487 31.3971 40.5487 30.9595V29.7561H40.3841Z" fill="white"/>
<path d="M39.8903 31.1793H48.4499L53.7174 51.6359L63.3745 14.2232L71.7144 40.9154L77.3659 23.8499L80.1099 31.0151L92.6201 31.0698V29.3742H81.9207L77.2018 15.7547L71.7693 32.4373L63.3745 5.47168L53.7174 43.1579L50.2606 29.5383H39.8903V31.1793Z" fill="white"/>
<path d="M17.0095 37.7966H10.3703V30.7407H3.29211V24.1224H10.3703V17.0664H17.0095V24.1224H24.0877V30.7407H17.0095V37.7966Z" fill="white"/>
<path d="M122.743 37.5783C124.006 38.4534 125.597 38.9457 127.243 38.9457C128.395 38.9457 129.877 38.5628 130.535 38.2346C131.193 37.9064 132.126 37.3595 132.126 37.3595L132.181 35.1169C131.742 35.6639 131.193 36.1014 130.59 36.4843C129.657 37.0313 128.505 37.3595 127.298 37.3595C123.731 37.3595 120.823 34.4605 120.823 30.9052C120.823 27.3499 123.731 24.4509 127.298 24.4509C127.517 24.4509 127.736 24.4509 127.956 24.5056H128.066L129.986 27.514C130.096 27.7328 130.425 27.7875 130.59 27.6781L130.974 27.4046L131.797 28.6079C131.907 28.7721 132.071 28.7721 132.236 28.7174L132.73 28.3891C132.894 28.2797 132.894 28.1157 132.839 27.9516L132.071 26.6935L132.455 26.4201C132.675 26.3107 132.73 25.9825 132.62 25.8184L128.56 19.4736C128.34 19.1454 127.846 19.036 127.517 19.2548L127.298 18.8719C127.188 18.6531 126.859 18.5984 126.639 18.7078L126.09 19.036C125.871 19.1454 125.816 19.4736 125.926 19.6923L126.2 20.0752C125.871 20.294 125.761 20.7863 125.98 21.1145L127.078 22.81H126.969C122.688 23.0288 119.341 26.5295 119.341 30.8505C119.341 33.2025 120.329 35.281 121.92 36.7578L122.743 37.5783Z" fill="white"/>
<path d="M128.285 21.169L131.578 26.3652C131.633 26.4199 131.742 26.4746 131.797 26.4199L131.962 26.3105C132.017 26.2558 132.071 26.1464 132.017 26.0917L128.725 20.8955L128.285 21.169Z" fill="white"/>
<path d="M128.395 20.3487L128.121 19.9111C128.066 19.8564 127.956 19.8017 127.901 19.8564L127.736 19.9658C127.681 20.0205 127.627 20.1299 127.681 20.1846L127.956 20.6222L128.395 20.3487Z" fill="white"/>
<path d="M121.921 30.9053C121.921 33.9136 124.334 36.3203 127.352 36.3203C129.547 36.3203 131.413 35.0623 132.29 33.2026C132.345 33.1479 132.345 33.0932 132.4 33.0385C127.078 34.5154 126.694 29.5379 122.085 29.6473C121.976 29.9755 121.921 30.4678 121.921 30.9053ZM125.487 34.4607C125.487 33.9136 125.926 33.5308 126.42 33.5308C126.969 33.5308 127.352 33.9683 127.352 34.4607C127.352 35.0076 126.914 35.3905 126.42 35.3905C125.926 35.3905 125.487 35.0076 125.487 34.4607ZM122.853 31.2882C122.853 30.9053 123.128 30.6319 123.512 30.6319C123.896 30.6319 124.17 30.9053 124.17 31.2882C124.17 31.6711 123.896 31.9446 123.512 31.9446C123.128 31.9446 122.853 31.6711 122.853 31.2882Z" fill="white"/>
<path d="M130.535 32.2725C130.929 32.2725 131.248 31.9541 131.248 31.5614C131.248 31.1686 130.929 30.8503 130.535 30.8503C130.141 30.8503 129.822 31.1686 129.822 31.5614C129.822 31.9541 130.141 32.2725 130.535 32.2725Z" fill="white"/>
<path d="M127.682 30.4129C127.894 30.4129 128.066 30.2415 128.066 30.0301C128.066 29.8186 127.894 29.6472 127.682 29.6472C127.47 29.6472 127.297 29.8186 127.297 30.0301C127.297 30.2415 127.47 30.4129 127.682 30.4129Z" fill="white"/>
<path d="M127.352 27.7872C127.595 27.7872 127.791 27.5913 127.791 27.3497C127.791 27.108 127.595 26.9121 127.352 26.9121C127.11 26.9121 126.914 27.108 126.914 27.3497C126.914 27.5913 127.11 27.7872 127.352 27.7872Z" fill="white"/>
<path d="M124.774 28.7717C125.167 28.7717 125.487 28.4534 125.487 28.0607C125.487 27.668 125.167 27.3496 124.774 27.3496C124.38 27.3496 124.06 27.668 124.06 28.0607C124.06 28.4534 124.38 28.7717 124.774 28.7717Z" fill="white"/>
<path d="M74.7324 42.555H72.3729V41.7893H78.0794V42.555H75.7199V48.7905H74.7324V42.555Z" fill="white"/>
<path d="M84.1154 45.5087H81.0973V48.0247H84.4443V48.7905H80.1099V41.7893H84.2795V42.555H81.0973V44.7976H84.1154V45.5087Z" fill="white"/>
<path d="M92.2905 48.5718C91.9067 48.7358 91.1932 48.8999 90.2607 48.8999C88.066 48.8999 86.42 47.6419 86.42 45.3447C86.42 43.1567 88.066 41.6799 90.4804 41.6799C91.4679 41.6799 92.0715 41.844 92.2905 42.0081L92.0715 42.7739C91.6869 42.6098 91.1383 42.5003 90.5347 42.5003C88.7245 42.5003 87.5173 43.5396 87.5173 45.3993C87.5173 47.0949 88.6147 48.2436 90.4804 48.2436C91.0833 48.2436 91.6869 48.1342 92.1264 47.97L92.2905 48.5718Z" fill="white"/>
<path d="M95.693 41.7893V44.7429H99.4239V41.7893H100.411V48.7905H99.4239V45.5087H95.693V48.7905H94.7049V41.7893H95.693Z" fill="white"/>
<path d="M103.32 48.7905V41.7893H104.417L106.886 45.3446C107.435 46.1651 107.929 46.9308 108.258 47.6419C108.148 46.712 108.148 45.8368 108.148 44.7429V41.7893H109.081V48.7905H108.093L105.624 45.2352C105.075 44.4694 104.582 43.649 104.198 42.8832H104.143C104.198 43.7584 104.198 44.6335 104.198 45.7821V48.7905H103.32Z" fill="white"/>
<path d="M118.683 45.235C118.683 47.6416 117.092 48.9544 115.116 48.9544C113.086 48.9544 111.659 47.5322 111.659 45.399C111.659 43.1565 113.196 41.7344 115.226 41.7344C117.312 41.6797 118.683 43.1565 118.683 45.235ZM112.648 45.3443C112.648 46.8212 113.525 48.1886 115.116 48.1886C116.708 48.1886 117.586 46.8758 117.586 45.2896C117.586 43.9222 116.763 42.4454 115.116 42.4454C113.47 42.3907 112.648 43.8128 112.648 45.3443Z" fill="white"/>
<path d="M121.097 41.7893H122.085V48.0247H125.378V48.7905H121.097V41.7893Z" fill="white"/>
<path d="M133.827 45.235C133.827 47.6416 132.236 48.9544 130.261 48.9544C128.23 48.9544 126.804 47.5322 126.804 45.399C126.804 43.1565 128.34 41.7344 130.371 41.7344C132.455 41.6797 133.827 43.1565 133.827 45.235ZM127.846 45.3443C127.846 46.8212 128.725 48.1886 130.316 48.1886C131.907 48.1886 132.784 46.8758 132.784 45.2896C132.784 43.9222 131.962 42.4454 130.316 42.4454C128.67 42.3907 127.846 43.8128 127.846 45.3443Z" fill="white"/>
<path d="M142.167 48.5173C141.728 48.6814 140.85 48.9002 139.808 48.9002C138.656 48.9002 137.668 48.6267 136.9 47.9703C136.241 47.3686 135.802 46.4388 135.802 45.3448C135.802 43.2664 137.393 41.7349 139.973 41.7349C140.85 41.7349 141.564 41.8989 141.893 42.063L141.674 42.8287C141.235 42.6647 140.741 42.5006 139.973 42.5006C138.107 42.5006 136.845 43.5398 136.845 45.3448C136.845 47.1499 138.052 48.1891 139.808 48.1891C140.466 48.1891 140.905 48.0797 141.125 48.025V45.9465H139.534V45.2354H142.057V48.5173H142.167Z" fill="white"/>
<path d="M145.844 41.7893V48.7905H144.856V41.7893H145.844Z" fill="white"/>
<path d="M152.757 45.5087H149.739V48.0247H153.086V48.7905H148.752V41.7893H152.922V42.555H149.739V44.7976H152.757V45.5087Z" fill="white"/>
<path d="M155.391 47.6966C155.83 47.97 156.488 48.1342 157.202 48.1342C158.244 48.1342 158.793 47.6419 158.793 46.9309C158.793 46.2745 158.354 45.8916 157.312 45.5634C156.05 45.1805 155.281 44.5789 155.281 43.5943C155.281 42.5003 156.269 41.6799 157.805 41.6799C158.574 41.6799 159.177 41.844 159.506 42.0081L159.232 42.7739C158.958 42.6645 158.464 42.4457 157.75 42.4457C156.708 42.4457 156.269 42.9927 156.269 43.4849C156.269 44.1413 156.763 44.4695 157.805 44.8523C159.122 45.2899 159.781 45.8916 159.781 46.9309C159.781 48.0247 158.903 48.9546 157.092 48.9546C156.324 48.9546 155.556 48.7358 155.117 48.5171L155.391 47.6966Z" fill="white"/>
</svg>
