<svg width="36" height="36" viewBox="0 0 36 36" fill="none" xmlns="http://www.w3.org/2000/svg">
<path d="M30.1558 1.28613H5.84415C3.32659 1.28613 1.28571 3.32702 1.28571 5.84457V30.1563C1.28571 32.6738 3.32659 34.7147 5.84415 34.7147H30.1558C32.6734 34.7147 34.7143 32.6738 34.7143 30.1563V5.84457C34.7143 3.32702 32.6734 1.28613 30.1558 1.28613Z" fill="white"/>
<path d="M16.9724 22.27C15.3523 22.101 13.8917 21.7002 12.6419 20.724C12.4861 20.6024 12.3266 20.4846 12.1841 20.3441C11.6371 19.818 11.5821 19.2159 12.0151 18.5967C12.3855 18.0649 13.0066 17.9224 13.6542 18.2282C13.7786 18.2912 13.898 18.3636 14.0113 18.4447C15.1695 19.2319 16.5346 19.6587 17.9349 19.6716C19.3352 19.6844 20.7079 19.2827 21.8803 18.5169C22.1044 18.3354 22.3628 18.201 22.6401 18.1219C22.8979 18.0456 23.1739 18.0583 23.4236 18.1579C23.6734 18.2574 23.8824 18.4381 24.0171 18.6708C24.359 19.2292 24.3552 19.7724 23.9335 20.2054C23.2872 20.8591 22.5062 21.364 21.6448 21.685C20.8062 21.9863 19.9334 22.1822 19.0465 22.2681C19.1795 22.4144 19.2364 22.4847 19.3276 22.5682C20.5299 23.7781 21.7379 24.9823 22.9364 26.1941C23.1273 26.3677 23.2568 26.5985 23.3054 26.8519C23.3541 27.1053 23.3192 27.3677 23.2061 27.5996C23.0909 27.8538 22.9033 28.0685 22.6669 28.2168C22.4304 28.365 22.1555 28.4404 21.8765 28.4334C21.5501 28.4013 21.2481 28.2465 21.0313 28.0004C20.1234 27.0868 19.1984 26.1903 18.3096 25.2596C18.0512 24.9899 17.9297 25.0412 17.698 25.2748C16.7844 26.2245 15.8556 27.1419 14.923 28.0612C14.7499 28.2531 14.5178 28.382 14.2634 28.4277C14.009 28.4735 13.7466 28.4334 13.5175 28.3138C13.2692 28.1978 13.0597 28.0126 12.9142 27.7805C12.7686 27.5483 12.6932 27.2791 12.697 27.0051C12.7244 26.6665 12.8824 26.3518 13.1376 26.1276C14.3304 24.9386 15.5194 23.749 16.7046 22.5587C16.7844 22.4771 16.8603 22.3916 16.9724 22.27Z" fill="#1D2020"/>
<path d="M17.9583 18.1292C16.9109 18.1231 15.8889 17.8061 15.0219 17.2183C14.1549 16.6306 13.482 15.7986 13.0886 14.8279C12.6951 13.8572 12.5988 12.7915 12.8118 11.7659C13.0249 10.7404 13.5377 9.80126 14.2853 9.06759C15.0328 8.33393 15.9814 7.8388 17.0107 7.64501C18.0401 7.45121 19.1038 7.56749 20.0669 7.97908C21.0301 8.39066 21.8493 9.07903 22.4207 9.95686C22.9921 10.8347 23.29 11.8625 23.2764 12.9098C23.2574 14.3053 22.6879 15.6368 21.6918 16.6143C20.6958 17.5919 19.3539 18.1364 17.9583 18.1292ZM20.5851 12.8357C20.5835 12.3238 20.4302 11.8238 20.1443 11.399C19.8585 10.9743 19.453 10.6439 18.9793 10.4497C18.5056 10.2556 17.9849 10.2063 17.4832 10.3082C16.9815 10.4101 16.5213 10.6586 16.1609 11.0222C15.8005 11.3858 15.556 11.8482 15.4586 12.3508C15.3611 12.8534 15.4149 13.3736 15.6133 13.8456C15.8116 14.3176 16.1456 14.7201 16.5728 15.0022C17 15.2843 17.5014 15.4332 18.0133 15.4302C18.3528 15.4295 18.6887 15.3617 19.0019 15.2308C19.3151 15.0998 19.5993 14.9083 19.8382 14.6673C20.0772 14.4262 20.2662 14.1403 20.3943 13.826C20.5225 13.5117 20.5873 13.1751 20.5851 12.8357Z" fill="#1D2020"/>
</svg>
