<svg width="36" height="36" viewBox="0 0 36 36" fill="none" xmlns="http://www.w3.org/2000/svg">
<g clip-path="url(#clip0_1_1725)">
<path fill-rule="evenodd" clip-rule="evenodd" d="M35.0896 23.2568V12.7855C35.0896 3.22105 32.8313 0.945486 23.2639 0.945486C-0.132477 0.795366 0.78948 -0.156113 0.94644 23.2392C0.94644 32.8037 3.20472 35.0792 12.7721 35.0792H20.7133C30.8783 35.2546 35.3452 34.5558 35.0896 23.2568ZM28.5102 25.3016H26.0204C25.078 25.3016 24.7936 24.537 23.1041 22.8482C21.6281 21.4259 21.0056 21.248 20.6323 21.248C20.1164 21.248 19.9742 21.3902 19.9742 22.1012V24.3412C19.9742 24.9456 19.7788 25.3013 18.1958 25.3013C15.5639 25.3013 12.6655 23.7011 10.6024 20.7502C7.50816 16.4302 6.67224 13.1588 6.67224 12.5011C6.67224 12.1278 6.81444 11.7898 7.5258 11.7898H10.0156C10.6556 11.7898 10.8868 12.0742 11.1359 12.7319C12.1565 16.0777 15.6524 21.6451 15.7061 18.4386V14.7763C15.5995 13.1052 14.7103 12.963 14.7103 12.3586C14.7103 12.0918 14.9594 11.7898 15.3504 11.7898H19.2625C19.796 11.7898 19.9739 12.0565 19.9739 12.6962V17.6387C20.0416 18.8238 20.7788 18.3576 21.5212 17.5854C23.3172 15.5942 24.5797 12.5008 24.5797 12.5008C24.7399 12.1274 25.0243 11.7898 25.6644 11.7898H28.1542C28.9012 11.7898 29.061 12.1631 28.9012 12.6966C28.5988 14.1542 25.5578 18.421 25.5578 18.439C25.2911 18.8479 25.1845 19.0614 25.5578 19.5413C26.2746 20.4344 31.4975 25.1512 28.5102 25.3016Z" fill="white"/>
<path d="M28.5102 25.3016H26.0204C25.078 25.3016 24.7936 24.537 23.1041 22.8482C21.6281 21.4259 21.0056 21.248 20.6323 21.248C20.1164 21.248 19.9742 21.3902 19.9742 22.1012V24.3412C19.9742 24.9456 19.7788 25.3013 18.1958 25.3013C15.5639 25.3013 12.6655 23.7011 10.6024 20.7502C7.50816 16.4302 6.67224 13.1588 6.67224 12.5011C6.67224 12.1278 6.81444 11.7898 7.5258 11.7898H10.0156C10.6556 11.7898 10.8868 12.0742 11.1359 12.7319C12.1565 16.0777 15.6524 21.6451 15.7061 18.4386V14.7763C15.5995 13.1052 14.7103 12.963 14.7103 12.3586C14.7103 12.0918 14.9594 11.7898 15.3504 11.7898H19.2625C19.796 11.7898 19.9739 12.0565 19.9739 12.6962V17.6387C20.0416 18.8238 20.7788 18.3576 21.5212 17.5854C23.3172 15.5942 24.5797 12.5008 24.5797 12.5008C24.7399 12.1274 25.0243 11.7898 25.6644 11.7898H28.1542C28.9012 11.7898 29.061 12.1631 28.9012 12.6966C28.5988 14.1542 25.5578 18.421 25.5578 18.439C25.2911 18.8479 25.1845 19.0614 25.5578 19.5413C26.2746 20.4344 31.4975 25.1512 28.5102 25.3016Z" fill="#3A3F3F"/>
</g>
<defs>
<clipPath id="clip0_1_1725">
<rect width="36" height="36" fill="white"/>
</clipPath>
</defs>
</svg>
