<svg width="36" height="36" viewBox="0 0 36 36" fill="none" xmlns="http://www.w3.org/2000/svg">
<g clip-path="url(#clip0_1_1731)">
<path d="M18.0045 0H17.9955C8.07077 0 2.36181e-05 8.073 2.36181e-05 18C-0.00613936 21.7913 1.19398 25.4862 3.42677 28.5502L1.18352 35.2372L8.10227 33.0255C11.0371 34.9726 14.4825 36.0075 18.0045 36C27.9293 36 36 27.9247 36 18C36 8.07525 27.9293 0 18.0045 0Z" fill="white"/>
<path d="M28.4782 25.4179C28.044 26.6442 26.3205 27.6612 24.9457 27.9582C24.0052 28.1584 22.7767 28.3182 18.6412 26.6037C13.3515 24.4122 9.94499 19.0369 9.67949 18.6882C9.42524 18.3394 7.54199 15.8419 7.54199 13.2589C7.54199 10.6759 8.85374 9.41817 9.38249 8.87817C9.81674 8.43492 10.5345 8.23242 11.223 8.23242C11.4457 8.23242 11.646 8.24367 11.826 8.25267C12.3547 8.27517 12.6202 8.30667 12.969 9.14142C13.4032 10.1877 14.4607 12.7707 14.5867 13.0362C14.715 13.3017 14.8432 13.6617 14.6632 14.0104C14.4945 14.3704 14.346 14.5302 14.0805 14.8362C13.815 15.1422 13.563 15.3762 13.2975 15.7047C13.0545 15.9904 12.78 16.2964 13.086 16.8252C13.392 17.3427 14.4495 19.0684 16.0065 20.4544C18.0157 22.2432 19.6447 22.8147 20.2275 23.0577C20.6617 23.2377 21.1792 23.1949 21.4965 22.8574C21.8992 22.4232 22.3965 21.7032 22.9027 20.9944C23.2627 20.4859 23.7172 20.4229 24.1942 20.6029C24.6802 20.7717 27.252 22.0429 27.7807 22.3062C28.3095 22.5717 28.6582 22.6977 28.7865 22.9204C28.9125 23.1432 28.9125 24.1894 28.4782 25.4179Z" fill="#1D2020"/>
</g>
<defs>
<clipPath id="clip0_1_1731">
<rect width="36" height="36" fill="white"/>
</clipPath>
</defs>
</svg>
