<svg width="149" height="55" viewBox="0 0 149 55" fill="none" xmlns="http://www.w3.org/2000/svg">
<g clip-path="url(#clip0_2005_313)">
<path d="M81.7044 30.4732V34.7759H88.3986V36.3125H79.7118V30.4732H81.7044ZM79.7118 27.2974V22.0728H88.0916V23.6095H81.7044V27.2974H79.7118Z" fill="#3E989A"/>
<path d="M91.0045 22.277C92.231 22.1234 93.6616 21.9697 95.2456 21.9697C98.1066 21.9697 100.151 22.5844 101.53 23.7625C102.91 24.9406 103.728 26.5797 103.728 28.8847C103.728 31.2409 102.961 33.1362 101.479 34.4168C100.049 35.7485 97.6468 36.4656 94.6323 36.4656C93.2018 36.4656 92.0264 36.4144 91.0045 36.312V22.277ZM93.0483 34.8777C93.5593 34.9802 94.2748 34.9802 95.0921 34.9802C99.3843 34.9802 101.684 32.7776 101.684 28.9359C101.684 25.5553 99.6401 23.4039 95.3991 23.4039C94.3765 23.4039 93.5593 23.5064 93.0483 23.6088V34.8777Z" fill="#3E989A"/>
<path d="M108.326 22.0728V36.3638H106.333V22.0728H108.326Z" fill="#3E989A"/>
<path d="M128.766 31.8562L127.182 36.3638H125.138L130.401 22.0728H132.802L138.066 36.3638H135.92L134.285 31.8562H128.766ZM133.875 30.422L132.343 26.3242C131.985 25.4022 131.781 24.5314 131.525 23.7119H131.474C131.218 24.5826 131.014 25.4534 130.707 26.273L129.175 30.422H133.875Z" fill="#3E989A"/>
<path d="M140.364 22.0728H142.358V34.8271H149V36.3638H140.364V22.0728Z" fill="#3E989A"/>
<path d="M12.7744 36.005H6.59156V29.3974H0V23.1995H6.59156V16.5918H12.7744V23.1995H19.3659V29.3974H12.7744V36.005Z" fill="#3E989A"/>
<path d="M37.6077 28.4752C37.6077 27.963 37.25 27.7069 36.8924 27.7069C36.6369 27.7069 35.7682 27.6557 35.7682 27.6557C33.8776 27.2459 34.2353 24.0189 34.2353 24.0189C36.0237 13.0061 32.0381 1.73722 21.9719 0.661552C20.1324 0.507885 14.2562 0.302996 10.5772 6.296H10.5261C10.3217 6.24478 10.0151 6.296 9.70855 6.44967L7.9712 7.83264C7.66463 8.14002 7.66463 8.54978 7.9712 8.90832L9.04425 9.984C9.40192 10.2401 9.86184 10.2913 10.1173 9.984L11.2926 7.93515C11.4969 7.4741 11.4969 7.06435 11.2926 6.85945L11.2415 6.80823C14.1029 3.01778 18.855 1.37866 21.512 1.78844C35.8193 3.47878 34.6951 21.6115 31.9359 28.1167C29.0745 36.6196 16.6578 48.0422 12.8766 49.9374L12.8255 49.9886L12.7744 49.9374C12.57 49.8349 12.2634 49.8349 11.9057 49.9374L9.70855 50.757C9.35082 50.9619 9.35082 51.4228 9.55527 51.8326L10.4239 53.0619C10.7305 53.4205 11.1393 53.4717 11.4969 53.2156L13.132 51.6277C13.3876 51.3204 13.4898 51.0643 13.4387 50.8082V50.757C22.3807 44.9176 27.6948 37.9002 30.8628 32.7779C30.8628 32.7779 32.4468 30.5241 35.9215 30.5241C35.9215 30.5241 36.688 30.5241 37.0456 30.4729C37.4033 30.4217 37.761 30.0119 37.761 29.6021V28.4752H37.6077Z" fill="#3E989A"/>
<path d="M37.1473 29.8069H45.1185L50.0239 48.964L59.017 13.928L66.7836 38.9245L72.0465 22.9431L74.6019 29.6532L86.252 29.7044V28.1165H76.2882L71.8937 15.3622L66.8347 30.985L59.017 5.73242L50.0239 41.0246L46.8047 28.2702H37.1473V29.8069Z" fill="#3E989A"/>
<path d="M15.8402 36.005H9.65736V29.3974H3.0658V23.1995H9.65736V16.5918H15.8402V23.1995H22.4317V29.3974H15.8402V36.005Z" fill="#283D71"/>
<path d="M114.304 35.8006C115.48 36.6201 116.961 37.0811 118.494 37.0811C119.567 37.0811 120.947 36.7226 121.56 36.4152C122.173 36.1079 123.042 35.5957 123.042 35.5957L123.093 33.4956C122.684 34.0078 122.173 34.4176 121.611 34.7761C120.743 35.2884 119.669 35.5957 118.545 35.5957C115.224 35.5957 112.516 32.8809 112.516 29.5514C112.516 26.222 115.224 23.5072 118.545 23.5072C118.75 23.5072 118.954 23.5072 119.159 23.5584H119.261L121.049 26.3757C121.151 26.5806 121.458 26.6318 121.611 26.5293L121.969 26.2732L122.735 27.4001C122.837 27.5538 122.991 27.5538 123.144 27.5026L123.604 27.1952C123.757 27.0928 123.757 26.9391 123.706 26.7854L122.991 25.6073L123.348 25.3512C123.553 25.2488 123.604 24.9415 123.502 24.7877L119.721 18.846C119.516 18.5387 119.056 18.4362 118.75 18.6411L118.545 18.2825C118.443 18.0776 118.137 18.0264 117.932 18.1289L117.421 18.4362C117.217 18.5387 117.166 18.846 117.268 19.0509L117.523 19.4094C117.217 19.6143 117.115 20.0753 117.319 20.3827L118.341 21.9705H118.239C114.253 22.1754 111.136 25.4537 111.136 29.5002C111.136 31.7028 112.056 33.6492 113.537 35.0322L114.304 35.8006Z" fill="#3E989A"/>
<path d="M119.464 20.4338L122.531 25.3C122.582 25.3512 122.683 25.4024 122.735 25.3512L122.888 25.2487C122.939 25.1975 122.99 25.0951 122.939 25.0439L119.874 20.1777L119.464 20.4338Z" fill="white"/>
<path d="M119.568 19.6659L119.312 19.256C119.261 19.2048 119.159 19.1536 119.108 19.2048L118.954 19.3072C118.903 19.3585 118.853 19.4609 118.903 19.5122L119.159 19.922L119.568 19.6659Z" fill="white"/>
<path d="M113.538 29.5514C113.538 32.3686 115.785 34.6224 118.596 34.6224C120.64 34.6224 122.377 33.4443 123.194 31.7027C123.246 31.6515 123.246 31.6003 123.297 31.5491C118.341 32.9321 117.983 28.2708 113.69 28.3732C113.589 28.6806 113.538 29.1416 113.538 29.5514ZM116.858 32.8808C116.858 32.3686 117.268 32.01 117.727 32.01C118.238 32.01 118.596 32.4198 118.596 32.8808C118.596 33.393 118.187 33.7516 117.727 33.7516C117.268 33.7516 116.858 33.393 116.858 32.8808ZM114.406 29.9099C114.406 29.5514 114.662 29.2953 115.019 29.2953C115.377 29.2953 115.632 29.5514 115.632 29.9099C115.632 30.2685 115.377 30.5246 115.019 30.5246C114.662 30.5246 114.406 30.2685 114.406 29.9099Z" fill="#283D71"/>
<path d="M121.561 30.8318C121.928 30.8318 122.225 30.5336 122.225 30.1659C122.225 29.7981 121.928 29.5 121.561 29.5C121.194 29.5 120.897 29.7981 120.897 30.1659C120.897 30.5336 121.194 30.8318 121.561 30.8318Z" fill="#283D71"/>
<path d="M118.904 29.0906C119.101 29.0906 119.261 28.9301 119.261 28.7321C119.261 28.5341 119.101 28.3735 118.904 28.3735C118.706 28.3735 118.545 28.5341 118.545 28.7321C118.545 28.9301 118.706 29.0906 118.904 29.0906Z" fill="#283D71"/>
<path d="M118.597 26.6315C118.822 26.6315 119.005 26.4481 119.005 26.2218C119.005 25.9954 118.822 25.812 118.597 25.812C118.371 25.812 118.188 25.9954 118.188 26.2218C118.188 26.4481 118.371 26.6315 118.597 26.6315Z" fill="#283D71"/>
<path d="M116.195 27.5535C116.562 27.5535 116.859 27.2553 116.859 26.8876C116.859 26.5198 116.562 26.2217 116.195 26.2217C115.828 26.2217 115.531 26.5198 115.531 26.8876C115.531 27.2553 115.828 27.5535 116.195 27.5535Z" fill="#283D71"/>
<path d="M69.5939 40.4612H67.3966V39.7441H72.7107V40.4612H70.5135V46.3006H69.5939V40.4612Z" fill="#2D2D2D"/>
<path d="M78.3313 43.2272H75.5208V45.5834H78.6376V46.3006H74.6012V39.7441H78.4841V40.4612H75.5208V42.5614H78.3313V43.2272Z" fill="#2D2D2D"/>
<path d="M85.9453 46.0956C85.5879 46.2493 84.9235 46.4029 84.055 46.4029C82.0112 46.4029 80.4784 45.2248 80.4784 43.0735C80.4784 41.0246 82.0112 39.6416 84.2597 39.6416C85.1792 39.6416 85.7414 39.7953 85.9453 39.9489L85.7414 40.6661C85.3832 40.5124 84.8723 40.4099 84.3102 40.4099C82.6245 40.4099 81.5003 41.3831 81.5003 43.1247C81.5003 44.7126 82.5222 45.7883 84.2597 45.7883C84.8211 45.7883 85.3832 45.6859 85.7925 45.5321L85.9453 46.0956Z" fill="#2D2D2D"/>
<path d="M89.1129 39.7441V42.5101H92.5872V39.7441H93.5068V46.3006H92.5872V43.2272H89.1129V46.3006H88.1927V39.7441H89.1129Z" fill="#2D2D2D"/>
<path d="M96.2158 46.3006V39.7441H97.2377L99.5373 43.0736C100.048 43.8419 100.508 44.559 100.815 45.2249C100.713 44.3541 100.713 43.5345 100.713 42.5101V39.7441H101.581V46.3006H100.662L98.3619 42.9711C97.851 42.254 97.3912 41.4857 97.0337 40.7685H96.9826C97.0337 41.5881 97.0337 42.4077 97.0337 43.4833V46.3006H96.2158Z" fill="#2D2D2D"/>
<path d="M110.523 42.971C110.523 45.2248 109.041 46.4541 107.201 46.4541C105.311 46.4541 103.982 45.1223 103.982 43.1246C103.982 41.0246 105.413 39.6928 107.304 39.6928C109.246 39.6416 110.523 41.0246 110.523 42.971ZM104.902 43.0734C104.902 44.4564 105.72 45.737 107.201 45.737C108.684 45.737 109.501 44.5076 109.501 43.0222C109.501 41.7416 108.735 40.3586 107.201 40.3586C105.668 40.3074 104.902 41.6392 104.902 43.0734Z" fill="#2D2D2D"/>
<path d="M112.771 39.7441H113.691V45.5834H116.757V46.3006H112.771V39.7441Z" fill="#2D2D2D"/>
<path d="M124.626 42.971C124.626 45.2248 123.144 46.4541 121.305 46.4541C119.414 46.4541 118.085 45.1223 118.085 43.1246C118.085 41.0246 119.516 39.6928 121.407 39.6928C123.348 39.6416 124.626 41.0246 124.626 42.971ZM119.056 43.0734C119.056 44.4564 119.874 45.737 121.356 45.737C122.837 45.737 123.655 44.5076 123.655 43.0222C123.655 41.7416 122.889 40.3586 121.356 40.3586C119.823 40.3074 119.056 41.6392 119.056 43.0734Z" fill="#2D2D2D"/>
<path d="M132.392 46.0444C131.984 46.1981 131.166 46.403 130.195 46.403C129.122 46.403 128.203 46.1469 127.487 45.5322C126.874 44.9688 126.465 44.098 126.465 43.0735C126.465 41.1271 127.947 39.6929 130.349 39.6929C131.166 39.6929 131.83 39.8465 132.137 40.0002L131.933 40.7173C131.524 40.5636 131.064 40.4099 130.349 40.4099C128.611 40.4099 127.436 41.3832 127.436 43.0735C127.436 44.7639 128.56 45.7371 130.195 45.7371C130.808 45.7371 131.217 45.6346 131.422 45.5834V43.637H129.94V42.9711H132.29V46.0444H132.392Z" fill="#2D2D2D"/>
<path d="M135.816 39.7441V46.3006H134.897V39.7441H135.816Z" fill="#2D2D2D"/>
<path d="M142.255 43.2272H139.444V45.5834H142.561V46.3006H138.524V39.7441H142.407V40.4612H139.444V42.5614H142.255V43.2272Z" fill="#2D2D2D"/>
<path d="M144.708 45.276C145.116 45.5321 145.73 45.6859 146.394 45.6859C147.365 45.6859 147.876 45.2248 147.876 44.559C147.876 43.9443 147.467 43.5857 146.496 43.2784C145.321 42.9198 144.605 42.3564 144.605 41.4344C144.605 40.4099 145.526 39.6416 146.956 39.6416C147.672 39.6416 148.234 39.7953 148.54 39.9489L148.284 40.6661C148.029 40.5636 147.569 40.3587 146.905 40.3587C145.934 40.3587 145.526 40.8709 145.526 41.3319C145.526 41.9466 145.985 42.2539 146.956 42.6125C148.183 43.0222 148.796 43.5857 148.796 44.559C148.796 45.5833 147.978 46.4542 146.292 46.4542C145.577 46.4542 144.861 46.2493 144.453 46.0444L144.708 45.276Z" fill="#2D2D2D"/>
</g>
<defs>
<clipPath id="clip0_2005_313">
<rect width="149" height="53.7811" fill="white" transform="translate(0 0.609375)"/>
</clipPath>
</defs>
</svg>
