<svg width="48" height="48" viewBox="0 0 48 48" fill="none" xmlns="http://www.w3.org/2000/svg">
<path d="M12 36H28M6 44H42M28 44C31.713 44 35.274 42.525 37.8995 39.8995C40.525 37.274 42 33.713 42 30C42 26.287 40.525 22.726 37.8995 20.1005C35.274 17.475 31.713 16 28 16H26M18 28H22M24 12V6C24 5.46957 23.7893 4.96086 23.4142 4.58579C23.0391 4.21071 22.5304 4 22 4H18C17.4696 4 16.9609 4.21071 16.5858 4.58579C16.2107 4.96086 16 5.46957 16 6V12M18 24C16.9391 24 15.9217 23.5786 15.1716 22.8284C14.4214 22.0783 14 21.0609 14 20V12H26V20C26 21.0609 25.5786 22.0783 24.8284 22.8284C24.0783 23.5786 23.0609 24 22 24H18Z" stroke="#3E989A" stroke-linecap="round" stroke-linejoin="round"/>
</svg>
