<svg width="80" height="80" viewBox="0 0 80 80" fill="none" xmlns="http://www.w3.org/2000/svg">
<path d="M10 69.9999C20 69.9999 33.3333 66.6666 33.3333 43.3333V16.6666C33.3333 12.4999 30.8133 9.94328 26.6667 9.99995H13.3333C9.16666 9.99995 6.66666 12.4999 6.66666 16.5733V36.6666C6.66666 40.8333 9.16666 43.3333 13.3333 43.3333C16.6667 43.3333 16.6667 43.3333 16.6667 46.6666V49.9999C16.6667 53.3333 13.3333 56.6666 10 56.6666C6.66666 56.6666 6.66666 56.6933 6.66666 60.1033V66.6666C6.66666 69.9999 6.66666 69.9999 10 69.9999Z" fill="#D7F0EE"/>
<path d="M50 69.9999C60 69.9999 73.3333 66.6666 73.3333 43.3333V16.6666C73.3333 12.4999 70.81 9.94328 66.6667 9.99995H53.3333C49.1667 9.99995 46.6667 12.4999 46.6667 16.5733V36.6666C46.6667 40.8333 49.1667 43.3333 53.3333 43.3333H55.8333C55.8333 50.8333 56.6667 56.6666 46.6667 56.6666V66.6666C46.6667 69.9999 46.6667 69.9999 50 69.9999Z" fill="#D7F0EE"/>
</svg>
