<svg width="315" height="453" viewBox="0 0 315 453" fill="none" xmlns="http://www.w3.org/2000/svg">
<g clip-path="url(#clip0_1_1573)">
<path d="M301.648 451.639L13.5515 453.117C6.08348 453.172 0 447.15 0 439.701V13.4161C0 6.00661 6.0226 0 13.4519 0H252.785L315 61.2111V438.223C315 445.594 309.038 451.584 301.648 451.639Z" fill="white"/>
<path d="M252.785 0H13.4519C6.0226 0 0 6.00661 0 13.4161V439.701C0 447.15 6.08348 453.172 13.5515 453.117L301.648 451.639C309.038 451.584 315 445.594 315 438.223V61.2111M252.785 0L315 61.2111M252.785 0V47.795C252.785 55.2045 258.808 61.2111 266.237 61.2111H315" stroke="#E5E8E7" stroke-width="3.67612"/>
<path opacity="0.3" d="M-1.32845 400.215L53.2494 368.705L162.28 479.987L85.8768 205.451L237.494 345.254L210.592 215.438L254.514 251.107L334.483 205.402L328.229 194.571L260.008 233.959L179.69 164.332L206.577 290.895L53.6012 149.548L131.013 425.831L58.7427 351.557L-7.38033 389.733L-1.32845 400.215Z" fill="#E5E8E7"/>
<path d="M252.515 45.9506V5.51335L255.272 3.67529L312.711 61.1146H272.274L258.489 57.898L254.353 52.3838L252.515 45.9506Z" fill="#E5E8E7"/>
</g>
<defs>
<clipPath id="clip0_1_1573">
<rect width="315" height="453" fill="white"/>
</clipPath>
</defs>
</svg>
